<?xml version="1.0" encoding="utf-8"?>
<!-- Generator: Adobe Illustrator 22.0.1, SVG Export Plug-In . SVG Version: 6.00 Build 0)  -->
<svg version="1.1" id="Capa_1" xmlns="http://www.w3.org/2000/svg" xmlns:xlink="http://www.w3.org/1999/xlink" x="0px" y="0px"
	 viewBox="0 0 329.5 48.9" style="enable-background:new 0 0 329.5 48.9;" xml:space="preserve">
<style type="text/css">
	.st0{fill:#221B17;}
</style>
<title>logo_pnrm_new</title>
<g>
	<path class="st0" d="M18.9,5.1H4.3v38.7h8.6V29.9h5.9c7.9,0,13.2-5.1,13.2-12.4S26.7,5.1,18.9,5.1z M18,22.4h-5v-9.9h5
		c3.3,0,5.5,1.8,5.5,5S21.3,22.4,18,22.4z"/>
	<path class="st0" d="M45.6,5.1L31,43.8h9l2.8-7.8h15l2.8,7.8H70L55.6,5.1H45.6z M45.7,28.1l4.7-13.3l4.7,13.3L45.7,28.1z"/>
	<polygon class="st0" points="70.1,5.1 94.5,43.8 103.7,43.8 80.5,5.1 	"/>
	<path class="st0" d="M129.9,4.3c-10.9,0-20.1,7.9-20.1,20.2s9.2,20.1,20.1,20.1s20.1-7.9,20.1-20.1S140.7,4.3,129.9,4.3z
		 M129.9,36.1c-5.4,0-11.2-3.6-11.2-11.7s5.8-11.7,11.2-11.7S141,16.3,141,24.4S135.2,36.1,129.9,36.1z"/>
	<path class="st0" d="M208.6,5.1L194,43.8h9.1l2.8-7.8h14.9l2.8,7.8h9.4L218.6,5.1H208.6z M208.7,28.1l4.8-13.3l4.7,13.3L208.7,28.1
		z"/>
	<polygon class="st0" points="259.6,31.2 248.9,5.1 237.7,5.1 237.7,43.8 245.9,43.8 245.9,18.5 256,43.8 262.9,43.8 273,18.1 
		273,43.8 281.5,43.8 281.5,5.1 269.6,5.1 	"/>
	<path class="st0" d="M310.7,5.1h-10l-14.5,38.7h9l2.8-7.8H313l2.8,7.8h9.4L310.7,5.1z M300.9,28.1l4.8-13.3l4.6,13.3H300.9z"/>
	<path class="st0" d="M187.1,17.5c0-7.2-5.4-12.4-13.2-12.4h-17.8v38.7h8.6V29.9h8l6.7,13.9h9.5l-7.8-15.6
		C185,26,187.3,21.9,187.1,17.5z M164.8,12.6h8.2c3.3,0,5.5,1.8,5.5,5s-2.2,4.9-5.5,4.9h-8.2V12.6z"/>
</g>
</svg>
