<svg id="Capa_1" data-name="Capa 1" xmlns="http://www.w3.org/2000/svg" viewBox="0 0 320.9 40.3"><defs><style>.cls-1{fill:#ffe371;}</style></defs><title>logo_yellow</title><path class="cls-1" d="M18.9,5.1H4.3V43.8h8.6V29.9h5.9c7.9,0,13.2-5.1,13.2-12.4S26.7,5.1,18.9,5.1ZM18,22.4H13V12.5h5c3.3,0,5.5,1.8,5.5,5S21.3,22.4,18,22.4Z" transform="translate(-4.3 -4.3)"/><path class="cls-1" d="M45.6,5.1,31,43.8h9L42.8,36h15l2.8,7.8H70L55.6,5.1Zm.1,23,4.7-13.3,4.7,13.3Z" transform="translate(-4.3 -4.3)"/><polygon class="cls-1" points="65.8 0.8 90.2 39.5 99.4 39.5 76.2 0.8 65.8 0.8"/><path class="cls-1" d="M129.9,4.3c-10.9,0-20.1,7.9-20.1,20.2s9.2,20.1,20.1,20.1S150,36.7,150,24.5,140.7,4.3,129.9,4.3Zm0,31.8c-5.4,0-11.2-3.6-11.2-11.7s5.8-11.7,11.2-11.7S141,16.3,141,24.4,135.2,36.1,129.9,36.1Z" transform="translate(-4.3 -4.3)"/><path class="cls-1" d="M208.6,5.1,194,43.8h9.1l2.8-7.8h14.9l2.8,7.8H233L218.6,5.1Zm.1,23,4.8-13.3,4.7,13.3Z" transform="translate(-4.3 -4.3)"/><polygon class="cls-1" points="255.3 26.9 244.6 0.8 233.4 0.8 233.4 39.5 241.6 39.5 241.6 14.2 251.7 39.5 258.6 39.5 268.7 13.8 268.7 39.5 277.2 39.5 277.2 0.8 265.3 0.8 255.3 26.9"/><path class="cls-1" d="M310.7,5.1h-10L286.2,43.8h9L298,36h15l2.8,7.8h9.4Zm-9.8,23,4.8-13.3,4.6,13.3Z" transform="translate(-4.3 -4.3)"/><path class="cls-1" d="M187.1,17.5c0-7.2-5.4-12.4-13.2-12.4H156.1V43.8h8.6V29.9h8l6.7,13.9h9.5l-7.8-15.6A11.65,11.65,0,0,0,187.1,17.5Zm-22.3-4.9H173c3.3,0,5.5,1.8,5.5,5s-2.2,4.9-5.5,4.9h-8.2Z" transform="translate(-4.3 -4.3)"/></svg>