<?xml version="1.0" encoding="utf-8"?>
<!-- Generator: Adobe Illustrator 22.0.1, SVG Export Plug-In . SVG Version: 6.00 Build 0)  -->
<svg version="1.1" id="Capa_1" xmlns="http://www.w3.org/2000/svg" xmlns:xlink="http://www.w3.org/1999/xlink" x="0px" y="0px"
	 viewBox="0 0 19.4 50" style="enable-background:new 0 0 19.4 50;" xml:space="preserve">
<style type="text/css">
	.st0{fill:#FFFFFF;}
</style>
<title>menu_thunder</title>
<path class="st0" d="M4.3,48.6c-0.1,0-0.2,0-0.3-0.1c-0.4-0.2-0.6-0.7-0.4-1.1l8.9-20.3H5.7c-0.4,0-0.8-0.3-0.8-0.8
	c0-0.1,0-0.2,0.1-0.3l9.4-24.2c0.2-0.4,0.6-0.6,1.1-0.5c0.4,0.2,0.6,0.6,0.5,1.1l0,0L7,25.5h6.9c0.5,0,0.8,0.4,0.8,0.8
	c0,0.1,0,0.2-0.1,0.3L5.1,48.2C4.9,48.5,4.6,48.6,4.3,48.6"/>
</svg>
